<?xml version="1.0" standalone="no"?><!DOCTYPE svg PUBLIC "-//W3C//DTD SVG 1.1//EN" "http://www.w3.org/Graphics/SVG/1.1/DTD/svg11.dtd"><svg t="1670569704425" class="icon" viewBox="0 0 1024 1024" version="1.1" xmlns="http://www.w3.org/2000/svg" p-id="31733" xmlns:xlink="http://www.w3.org/1999/xlink" width="128" height="128"><path d="M192 0h448.1536L960 320v576c0 70.6944-57.3056 128-128 128H192C121.3056 1024 64 966.6944 64 896V128C64 57.3056 121.3056 0 192 0z" fill="#8CA9C1" p-id="31734"></path><path d="M339.5968 315.7376a47.1936 47.1936 0 0 1-47.168-47.1296 47.1808 47.1808 0 0 1 94.3488 0 47.1808 47.1808 0 0 1-47.1808 47.1296m17.8944-152.768a22.016 22.016 0 0 1 25.216-8.128c12.2112 4.8768 23.5904 11.392 34.1632 19.5072 7.3216 6.5024 9.7664 17.0624 5.696 25.9968-2.432 6.5024-2.432 13.824 0.8064 19.5072 3.264 5.6832 9.7664 9.7536 16.2816 10.56 10.56 0.8192 17.8816 8.128 19.5072 17.8816 0.8192 6.5024 1.6384 13.824 1.6384 20.3136 0 6.5024-0.8192 13.0048-1.6384 19.5072a21.5936 21.5936 0 0 1-19.5072 17.8816 21.12 21.12 0 0 0-16.2816 10.56c-3.2384 5.6832-4.0576 13.0048-0.8064 19.4944 4.0704 8.9472 1.6256 20.3136-5.696 26.0096-9.7664 8.128-21.952 14.6304-34.1504 19.5072-8.96 3.2512-19.5328 0-26.0352-8.128a21.2224 21.2224 0 0 0-17.088-8.9472c-7.296 0-13.824 3.2512-17.8816 8.9472-3.264 7.296-10.5728 10.56-17.088 10.56-2.432 0-4.8768-0.8192-7.3216-1.6256a142.7584 142.7584 0 0 1-34.176-19.5072 22.4768 22.4768 0 0 1-5.696-25.9968c2.4576-6.5024 2.4576-13.824-0.7936-19.5072-3.2512-5.6832-9.7664-9.7536-16.2688-10.56-10.5728-0.8064-17.8944-8.128-19.5328-17.8816-2.432-6.5024-3.2384-13.8112-3.2384-20.3136s0.8064-13.0048 1.6256-19.4944a21.5808 21.5808 0 0 1 19.5328-17.8816 21.0816 21.0816 0 0 0 16.2688-10.56 20.672 20.672 0 0 0 0.8192-19.5072c-4.0832-9.7536-1.6384-20.3136 6.5024-26.816a142.784 142.784 0 0 1 34.1376-19.5072c8.96-3.2512 19.5328 0 26.0352 8.128a21.248 21.248 0 0 0 17.0752 8.9472c7.3088 0 13.824-3.2512 17.8944-8.9472z m-17.8944 77.1968c-15.4368 0-28.4672 13.0048-28.4672 28.4416s13.0048 28.4416 28.4672 28.4416c15.4496 0 28.48-13.0048 28.48-28.4416s-13.0176-28.4416-28.48-28.4416z" fill="#5988AF" fill-opacity=".801" p-id="31735"></path><path d="M640 0l320 320H768c-70.6944 0-128-57.3056-128-128V0z" fill="#6187A6" p-id="31736"></path><path d="M410.0224 724.992v-30.7968h-88.2688v-57.1904h74.24v-30.9376h-74.24v-50.3296h88V524.8H281.6v200.192h128.4224z m60.9152 0l38.6432-72.1792 38.6304 72.192h48.5376l-62.848-100.928L593.3312 524.8H546.56l-37.5296 70.9504L472.0384 524.8h-46.464l59.392 99.2768-60.928 100.928h46.8992z m274.8672 0v-30.7968h-88.2816v-57.1904h74.24v-30.9376h-74.24v-50.3296h88V524.8H617.3696v200.192h128.4352z" fill="#FFFFFF" p-id="31737"></path></svg>