<?xml version="1.0" standalone="no"?><!DOCTYPE svg PUBLIC "-//W3C//DTD SVG 1.1//EN" "http://www.w3.org/Graphics/SVG/1.1/DTD/svg11.dtd"><svg t="1670568785522" class="icon" viewBox="0 0 1383 1024" version="1.1" xmlns="http://www.w3.org/2000/svg" p-id="11022" xmlns:xlink="http://www.w3.org/1999/xlink" width="172.875" height="128"><path d="M1057.972784 510.885248L787.130932 980.071397a29.285735 29.285735 0 0 0 25.394624 43.928603h541.478908a29.285735 29.285735 0 0 0 25.394624-43.928603l-270.637057-469.186149a29.388133 29.388133 0 0 0-50.789247 0z" fill="#00D0FF" opacity=".8" p-id="11023"></path><path d="M468.26457 26.441845l-460.78954 918.199956A52.939598 52.939598 0 0 0 52.939598 1024h977.488211a52.939598 52.939598 0 0 0 45.771761-79.358199L559.808092 26.441845a52.837201 52.837201 0 0 0-91.543522 0z" fill="#032CDD" opacity=".7" p-id="11024"></path><path d="M1083.367408 186.796605m-114.99259 0a114.99259 114.99259 0 1 0 229.985179 0 114.99259 114.99259 0 1 0-229.985179 0Z" fill="#032CDD" opacity=".7" p-id="11025"></path></svg>