<?xml version="1.0" standalone="no"?><!DOCTYPE svg PUBLIC "-//W3C//DTD SVG 1.1//EN" "http://www.w3.org/Graphics/SVG/1.1/DTD/svg11.dtd"><svg t="1670569336934" class="icon" viewBox="0 0 1365 1024" version="1.1" xmlns="http://www.w3.org/2000/svg" p-id="25818" xmlns:xlink="http://www.w3.org/1999/xlink" width="170.625" height="128"><path d="M603.022222 473.884444L449.991111 386.844444a34.702222 34.702222 0 0 0-51.768889 30.151112v174.648888a34.702222 34.702222 0 0 0 51.768889 30.151112L603.022222 534.755556a34.702222 34.702222 0 0 0 0-60.871112zM1269.76 876.088889L853.333333 739.555556V284.444444l416.426667-138.808888A72.817778 72.817778 0 0 1 1365.333333 212.195556v595.057777a72.248889 72.248889 0 0 1-95.573333 68.835556z" fill="#F9BBB8" p-id="25819"></path><path d="M847.644444 0H237.795556A237.795556 237.795556 0 0 0 0 237.795556v552.96A233.813333 233.813333 0 0 0 233.244444 1024h614.4a233.813333 233.813333 0 0 0 233.244445-233.244444V233.244444A233.813333 233.813333 0 0 0 847.644444 0z m-144.497777 534.755556l-309.475556 175.786666A34.702222 34.702222 0 0 1 341.333333 682.666667V328.248889a34.702222 34.702222 0 0 1 51.768889-30.151111l309.475556 175.786666a35.271111 35.271111 0 0 1 0.568889 60.871112z" fill="#F55E55" p-id="25820"></path></svg>